<?xml version="1.0" encoding="UTF-8"?>
<svg id="Layer_2" xmlns="http://www.w3.org/2000/svg" version="1.1" viewBox="0 0 90 90">
  <!-- Generator: Adobe Illustrator 29.6.1, SVG Export Plug-In . SVG Version: 2.1.1 Build 9)  -->
  <defs>
    <style>
      .st0 {
        fill: #3a78b1;
      }
    </style>
  </defs>
  <g id="Layer_1-2">
    <g id="Layer_2-2">
      <path class="st0" d="M45,24c-14.5,0-39-2.5-39-12S30.5,0,45,0s39,2.5,39,12-24.5,12-39,12ZM45,6c-20,0-32,4-33.1,6.2,1.1,1.8,13,5.8,33.1,5.8s31.2-3.7,32.9-6c-1.7-2.3-13.5-6-32.9-6Z"/>
      <rect class="st0" x="78" y="12" width="6" height="66"/>
      <rect class="st0" x="6" y="12" width="6" height="66"/>
      <path class="st0" d="M45,84c-20,0-32-4-33.1-5.8,0,0,.2-.1.2-.2h-6.2c0,9.5,24.5,12,39,12s39-2.5,39-12h-6.1c-1.7,2.3-13.5,6-32.9,6Z"/>
    </g>
    <g id="Layer_4">
      <path class="st0" d="M60,54c-6.6,0-12-5.4-12-12s5.4-12,12-12,12,5.4,12,12-5.4,12-12,12ZM60,34.5c-4.1,0-7.5,3.4-7.5,7.5s3.4,7.5,7.5,7.5,7.5-3.4,7.5-7.5-3.4-7.5-7.5-7.5Z"/>
      <path class="st0" d="M30,54c-6.6,0-12-5.4-12-12s5.4-12,12-12,12,5.4,12,12-5.4,12-12,12ZM30,34.5c-4.1,0-7.5,3.4-7.5,7.5s3.4,7.5,7.5,7.5,7.5-3.4,7.5-7.5-3.4-7.5-7.5-7.5Z"/>
      <rect class="st0" x="9" y="39" width="12" height="6"/>
      <rect class="st0" x="69" y="39" width="12" height="6"/>
      <path class="st0" d="M81,42h3c3.3,0,6,2.7,6,6v6c0,3.3-2.7,6-6,6h-3v-18h0Z"/>
      <path class="st0" d="M9,60h-3c-3.3,0-6-2.7-6-6v-6c0-3.3,2.7-6,6-6h3v18h0Z"/>
      <rect class="st0" x="39" y="36" width="12" height="6"/>
    </g>
    <g id="Layer_5">
      <circle class="st0" cx="45" cy="69.7" r="3.9"/>
      <circle class="st0" cx="54" cy="68" r="3.9"/>
      <circle class="st0" cx="36" cy="68.1" r="3.9"/>
    </g>
  </g>
</svg>