<?xml version="1.0" encoding="UTF-8"?>
<svg id="Layer_1" xmlns="http://www.w3.org/2000/svg" version="1.1" viewBox="0 0 16 16">
  <!-- Generator: Adobe Illustrator 29.6.1, SVG Export Plug-In . SVG Version: 2.1.1 Build 9)  -->
  <defs>
    <style>
      .st0 {
        fill: #3a78b1;
      }
    </style>
  </defs>
  <g id="Layer_2">
    <path class="st0" d="M11,14.6h-6c-2,0-3.6-1.6-3.6-3.5v-5.9c0-2,1.6-3.5,3.6-3.5h6c2,0,3.6,1.6,3.6,3.5v5.9c0,2-1.6,3.5-3.6,3.5ZM5,2.9c-1.3,0-2.4,1-2.4,2.3v5.9c0,1.3,1.1,2.3,2.4,2.3h6c1.3,0,2.4-1,2.4-2.3v-5.9c0-1.3-1.1-2.3-2.4-2.3,0,0-6,0-6,0Z"/>
  </g>
  <g id="Layer_4">
    <path class="st0" d="M10.5,8.5c-1.1,0-2-.9-2-2s.9-2,2-2,2,.9,2,2-.9,2-2,2ZM10.5,5.2c-.7,0-1.2.6-1.2,1.2s.6,1.2,1.2,1.2,1.2-.6,1.2-1.2-.6-1.2-1.2-1.2Z"/>
    <path class="st0" d="M5.5,8.5c-1.1,0-2-.9-2-2s.9-2,2-2,2,.9,2,2-.9,2-2,2ZM5.5,5.2c-.7,0-1.2.6-1.2,1.2s.6,1.2,1.2,1.2,1.2-.6,1.2-1.2-.6-1.2-1.2-1.2Z"/>
    <rect class="st0" x="2" y="6" width="2" height="1"/>
    <rect class="st0" x="12" y="6" width="2" height="1"/>
    <path class="st0" d="M14,6.5h.5c.6,0,1,.4,1,1v1c0,.6-.4,1-1,1h-.5v-3h0Z"/>
    <path class="st0" d="M2,9.5h-.5c-.6,0-1-.4-1-1v-1c0-.6.4-1,1-1h.5v3h0Z"/>
    <rect class="st0" x="7" y="5.5" width="2" height="1"/>
  </g>
  <g id="Layer_5">
    <circle class="st0" cx="8" cy="11.1" r=".6"/>
    <circle class="st0" cx="9.5" cy="10.8" r=".6"/>
    <circle class="st0" cx="6.5" cy="10.9" r=".6"/>
  </g>
</svg>